<svg width="71" height="59" viewBox="0 0 71 59" fill="none" xmlns="http://www.w3.org/2000/svg">
<rect width="71" height="59" fill="black"/>
<path d="M47.0105 53H24.1273C12.9615 53 6 47.1783 6 37.8067C6 27.6541 13.8575 15.7976 24.0584 15.7976H46.9416C57.1425 15.7976 65 27.6541 65 37.8067C65 47.1783 58.1075 53 47.0105 53ZM24.0584 21.3354C17.2348 21.3354 11.3762 30.423 11.3762 37.8777C11.3762 46.3263 19.3715 47.6043 24.1273 47.6043H47.0105C51.7664 47.6043 59.6928 46.3263 59.6928 37.8777C59.6928 30.423 53.8341 21.3354 47.0105 21.3354H24.0584Z" fill="white"/>
<path d="M23.5068 41.4275C26.1334 41.4275 28.2627 38.2807 28.2627 34.3988C28.2627 30.517 26.1334 27.3701 23.5068 27.3701C20.8802 27.3701 18.751 30.517 18.751 34.3988C18.751 38.2807 20.8802 41.4275 23.5068 41.4275Z" fill="white"/>
<path d="M47.4238 41.4275C50.0504 41.4275 52.1797 38.2807 52.1797 34.3988C52.1797 30.517 50.0504 27.3701 47.4238 27.3701C44.7972 27.3701 42.668 30.517 42.668 34.3988C42.668 38.2807 44.7972 41.4275 47.4238 41.4275Z" fill="white"/>
<path d="M35.5 6C32.8808 6 30.7441 8.2009 30.7441 10.8988V13.8806H40.2558V10.8988C40.2558 8.2009 38.1191 6 35.5 6Z" fill="white"/>
</svg>
