<svg width="60" height="47" viewBox="0 0 60 47" fill="none" xmlns="http://www.w3.org/2000/svg">
<path d="M41.0878 46.6666H18.1615C6.97456 46.6666 0 40.8861 0 31.581C0 21.5004 7.87228 9.72803 18.0924 9.72803H41.0187C51.2388 9.72803 59.1111 21.5004 59.1111 31.581C59.1111 40.8861 52.2056 46.6666 41.0878 46.6666ZM18.0924 15.2265C11.256 15.2265 5.3863 24.2497 5.3863 31.6515C5.3863 40.0402 13.3967 41.3091 18.1615 41.3091H41.0878C45.8526 41.3091 53.7939 40.0402 53.7939 31.6515C53.7939 24.2497 47.9242 15.2265 41.0878 15.2265H18.0924Z" fill="#4A38BE"/>
<path d="M17.5402 35.1762C20.1717 35.1762 22.305 32.0517 22.305 28.1974C22.305 24.3431 20.1717 21.2185 17.5402 21.2185C14.9087 21.2185 12.7754 24.3431 12.7754 28.1974C12.7754 32.0517 14.9087 35.1762 17.5402 35.1762Z" fill="#4A38BE"/>
<path d="M41.5021 35.1762C44.1336 35.1762 46.2669 32.0517 46.2669 28.1974C46.2669 24.3431 44.1336 21.2185 41.5021 21.2185C38.8706 21.2185 36.7373 24.3431 36.7373 28.1974C36.7373 32.0517 38.8706 35.1762 41.5021 35.1762Z" fill="#4A38BE"/>
<path d="M29.5553 0C26.9312 0 24.7905 2.18529 24.7905 4.86405V7.82476H34.3201V4.86405C34.3201 2.18529 32.1794 0 29.5553 0Z" fill="#4A38BE"/>
</svg>
